<?xml version="1.0" encoding="utf-8"?>
<!-- Generator: Adobe Illustrator 23.0.1, SVG Export Plug-In . SVG Version: 6.00 Build 0)  -->
<svg version="1.1" id="Camada_1" xmlns="http://www.w3.org/2000/svg" xmlns:xlink="http://www.w3.org/1999/xlink" x="0px" y="0px"
	 viewBox="0 0 1280 1024" style="enable-background:new 0 0 1280 1024;" xml:space="preserve">
<style type="text/css">
	.st0{fill:#FBB03B;stroke:#000000;stroke-miterlimit:10;}
	.st1{opacity:0.5;fill:#FBB03B;stroke:#000000;stroke-miterlimit:10;}
</style>
<path class="st0" d="M260.5,81.5l54.88,38.43c-12.53,17.89-33.04,28.57-54.88,28.57c-36.76,0-67-30.24-67-67s30.24-67,67-67
	c17.23,0,33.02,6.64,44.95,17.49"/>
<path class="st0" d="M304.86,31.38c12.74,11.64,21.09,28.06,21.97,46.47l-67.67,3.23"/>
<path class="st0" d="M305.45,31.99c0.87,0.79,1.72,1.6,2.54,2.44"/>
<path class="st0" d="M272.5,85l61.97-1.99c0.02,0.66,0.03,1.33,0.03,1.99c0,12.88-3.6,25.48-10.33,36.21L272.5,85z"/>
<line class="st0" x1="260.5" y1="81.5" x2="260.5" y2="14.5"/>
<line class="st0" x1="260.5" y1="81.5" x2="193.5" y2="81.5"/>
<line class="st0" x1="260.5" y1="81.5" x2="260.5" y2="148.5"/>
<line class="st0" x1="260.5" y1="81.5" x2="307.5" y2="34.5"/>
<line class="st0" x1="260.5" y1="81.5" x2="213.5" y2="34.5"/>
<line class="st0" x1="260.5" y1="81.5" x2="205.5" y2="120.5"/>
<circle class="st0" cx="230" cy="34" r="3.5"/>
<circle class="st0" cx="250" cy="27" r="3.5"/>
<circle class="st0" cx="248" cy="57" r="3.5"/>
<circle class="st0" cx="273" cy="28" r="3.5"/>
<circle class="st0" cx="286" cy="34" r="3.5"/>
<circle class="st0" cx="270" cy="58" r="3.5"/>
<circle class="st0" cx="284" cy="72" r="3.5"/>
<circle class="st0" cx="307" cy="53" r="3.5"/>
<circle class="st0" cx="310" cy="72" r="3.5"/>
<circle class="st0" cx="214" cy="53" r="3.5"/>
<circle class="st0" cx="209" cy="70" r="3.5"/>
<circle class="st0" cx="235" cy="71" r="3.5"/>
<circle class="st0" cx="209" cy="91" r="3.5"/>
<circle class="st0" cx="236" cy="89" r="3.5"/>
<circle class="st0" cx="225" cy="119" r="3.5"/>
<circle class="st0" cx="246" cy="129" r="3.5"/>
<circle class="st0" cx="251" cy="100" r="3.5"/>
<circle class="st0" cx="274" cy="129" r="3.5"/>
<circle class="st0" cx="293" cy="120" r="3.5"/>
<circle class="st0" cx="273" cy="101" r="3.5"/>
<circle class="st0" cx="318" cy="107" r="3.5"/>
<circle class="st0" cx="293" cy="90" r="3.5"/>
<circle class="st0" cx="320" cy="90" r="3.5"/>
<circle class="st0" cx="214" cy="104" r="3.5"/>
<path class="st0" d="M268.5,111.5c0.36,0.67,1,2.09,1,4c0,0.76-0.1,2.31-1,4"/>
<path class="st0" d="M286.5,106.5c-0.46,0.48-1.66,1.85-2,4c-0.4,2.55,0.68,4.48,1,5"/>
<path class="st0" d="M265.5,91.5c0.1,0.42,0.53,1.92,2,3c1.24,0.91,2.53,0.99,3,1"/>
<path class="st0" d="M285.5,128.5c-0.46,0.48-1.66,1.85-2,4c-0.4,2.55,0.68,4.48,1,5"/>
<path class="st0" d="M307.62,89.99c-0.01,0.36-0.04,2.73,1.88,4.51c2.03,1.88,4.55,1.56,4.88,1.51"/>
<path class="st0" d="M301.5,91.5c-0.46,0.48-1.66,1.85-2,4c-0.4,2.55,0.68,4.48,1,5"/>
<path class="st0" d="M254.26,112.08c-0.57,0.23-2.57,1.14-3.76,3.42c-1.01,1.94-0.85,3.76-0.76,4.42"/>
<path class="st0" d="M241.5,102.5c0.32,0.52,1.4,2.45,1,5c-0.34,2.15-1.54,3.52-2,4"/>
<path class="st0" d="M233.5,125.5c-0.46,0.48-1.66,1.85-2,4c-0.4,2.55,0.68,4.48,1,5"/>
<path class="st0" d="M233.41,94.97c-0.73-0.28-2.15-0.7-3.91-0.47c-2.71,0.35-4.4,1.99-4.91,2.53"/>
<path class="st0" d="M220.2,92.2c-0.13-0.75-0.5-2.26-1.7-3.7c-1.74-2.08-4.02-2.58-4.7-2.7"/>
<path class="st0" d="M220.74,58.08c2.16,0.19,4.01,1.52,4.76,3.42c0.85,2.15-0.07,4.09-0.24,4.42"/>
<path class="st0" d="M225.5,75.49c-0.65,0.37-2.09,1.06-4,1.01c-2.69-0.06-4.49-1.54-5-1.99"/>
<path class="st0" d="M233.68,44.64c0.56-0.21,2.5-0.88,4.82-0.14c2.29,0.73,3.48,2.36,3.82,2.86"/>
<path class="st0" d="M255.71,34.37c0.07,0.31,0.61,2.93-1.21,5.13c-1.59,1.92-3.83,2.1-4.21,2.13"/>
<path class="st0" d="M298.5,69.5c-0.46,0.48-1.66,1.85-2,4c-0.4,2.55,0.68,4.48,1,5"/>
<path class="st0" d="M295.5,55.5c1.52,1.2,2.29,3.11,2,5c-0.42,2.72-2.8,3.9-3,4"/>
<path class="st0" d="M268.39,37.77c-0.18,0.58-0.71,2.5,0.11,4.73c0.85,2.3,2.6,3.43,3.11,3.73"/>
<path class="st0" d="M291.69,42.38c-0.7-0.02-2.43,0.02-4.19,1.12c-2.23,1.39-3,3.52-3.19,4.12"/>
<path class="st1" d="M260,81l60.91,42.33c-13.94,19.53-36.69,31.17-60.91,31.17c-40.87,0-74.5-33.18-74.5-73.5S219.13,7.5,260,7.5
	c39.6,0,72.63,31.15,74.42,70.18L260,81z"/>
<path class="st1" d="M271.81,84.88l59.19,41.28c4.04-6.42,6.97-13.54,8.68-21.09c1.64-7.24,2.14-14.77,1.47-22.32L271.81,84.88z"/>
<path class="st0" d="M113.5,289.5l54.88,38.43c-12.53,17.89-33.04,28.57-54.88,28.57c-36.76,0-67-30.24-67-67s30.24-67,67-67
	c17.23,0,33.02,6.64,44.95,17.49"/>
<path class="st0" d="M157.86,239.38c12.74,11.64,21.09,28.06,21.97,46.47l-67.67,3.23"/>
<path class="st0" d="M158.45,239.99c0.87,0.79,1.72,1.6,2.54,2.44"/>
<path class="st0" d="M125.5,293l61.97-1.99c0.02,0.66,0.03,1.33,0.03,1.99c0,12.88-3.6,25.48-10.33,36.21L125.5,293z"/>
<line class="st0" x1="113.5" y1="289.5" x2="113.5" y2="222.5"/>
<line class="st0" x1="113.5" y1="289.5" x2="46.5" y2="289.5"/>
<line class="st0" x1="113.5" y1="289.5" x2="113.5" y2="356.5"/>
<line class="st0" x1="113.5" y1="289.5" x2="160.5" y2="242.5"/>
<line class="st0" x1="113.5" y1="289.5" x2="66.5" y2="242.5"/>
<line class="st0" x1="113.5" y1="289.5" x2="58.5" y2="328.5"/>
<circle class="st0" cx="83" cy="242" r="3.5"/>
<circle class="st0" cx="103" cy="235" r="3.5"/>
<circle class="st0" cx="101" cy="265" r="3.5"/>
<circle class="st0" cx="126" cy="236" r="3.5"/>
<circle class="st0" cx="139" cy="242" r="3.5"/>
<circle class="st0" cx="123" cy="266" r="3.5"/>
<circle class="st0" cx="137" cy="280" r="3.5"/>
<circle class="st0" cx="160" cy="261" r="3.5"/>
<circle class="st0" cx="163" cy="280" r="3.5"/>
<circle class="st0" cx="67" cy="261" r="3.5"/>
<circle class="st0" cx="62" cy="278" r="3.5"/>
<circle class="st0" cx="88" cy="279" r="3.5"/>
<circle class="st0" cx="62" cy="299" r="3.5"/>
<circle class="st0" cx="89" cy="297" r="3.5"/>
<circle class="st0" cx="78" cy="327" r="3.5"/>
<circle class="st0" cx="99" cy="337" r="3.5"/>
<circle class="st0" cx="104" cy="308" r="3.5"/>
<circle class="st0" cx="127" cy="337" r="3.5"/>
<circle class="st0" cx="146" cy="328" r="3.5"/>
<circle class="st0" cx="126" cy="309" r="3.5"/>
<circle class="st0" cx="171" cy="315" r="3.5"/>
<circle class="st0" cx="146" cy="298" r="3.5"/>
<circle class="st0" cx="173" cy="298" r="3.5"/>
<circle class="st0" cx="67" cy="312" r="3.5"/>
<path class="st0" d="M121.5,319.5c0.36,0.67,1,2.09,1,4c0,0.76-0.1,2.31-1,4"/>
<path class="st0" d="M139.5,314.5c-0.46,0.48-1.66,1.85-2,4c-0.4,2.55,0.68,4.48,1,5"/>
<path class="st0" d="M118.5,299.5c0.1,0.42,0.53,1.92,2,3c1.24,0.91,2.53,0.99,3,1"/>
<path class="st0" d="M138.5,336.5c-0.46,0.48-1.66,1.85-2,4c-0.4,2.55,0.68,4.48,1,5"/>
<path class="st0" d="M160.62,297.99c-0.01,0.36-0.04,2.73,1.88,4.51c2.03,1.88,4.55,1.56,4.88,1.51"/>
<path class="st0" d="M154.5,299.5c-0.46,0.48-1.66,1.85-2,4c-0.4,2.55,0.68,4.48,1,5"/>
<path class="st0" d="M107.26,320.08c-0.57,0.23-2.57,1.14-3.76,3.42c-1.01,1.94-0.85,3.76-0.76,4.42"/>
<path class="st0" d="M94.5,310.5c0.32,0.52,1.4,2.45,1,5c-0.34,2.15-1.54,3.52-2,4"/>
<path class="st0" d="M86.5,333.5c-0.46,0.48-1.66,1.85-2,4c-0.4,2.55,0.68,4.48,1,5"/>
<path class="st0" d="M86.41,302.97c-0.73-0.28-2.15-0.7-3.91-0.47c-2.71,0.35-4.4,1.99-4.91,2.53"/>
<path class="st0" d="M73.2,300.2c-0.13-0.75-0.5-2.26-1.7-3.7c-1.74-2.08-4.02-2.58-4.7-2.7"/>
<path class="st0" d="M73.74,266.08c2.16,0.19,4.01,1.52,4.76,3.42c0.85,2.15-0.07,4.09-0.24,4.42"/>
<path class="st0" d="M78.5,283.49c-0.65,0.37-2.09,1.06-4,1.01c-2.69-0.06-4.49-1.54-5-1.99"/>
<path class="st0" d="M86.68,252.64c0.56-0.21,2.5-0.88,4.82-0.14c2.29,0.73,3.48,2.36,3.82,2.86"/>
<path class="st0" d="M108.71,242.37c0.07,0.31,0.61,2.93-1.21,5.13c-1.59,1.92-3.83,2.1-4.21,2.13"/>
<path class="st0" d="M151.5,277.5c-0.46,0.48-1.66,1.85-2,4c-0.4,2.55,0.68,4.48,1,5"/>
<path class="st0" d="M148.5,263.5c1.52,1.2,2.29,3.11,2,5c-0.42,2.72-2.8,3.9-3,4"/>
<path class="st0" d="M121.39,245.77c-0.18,0.58-0.71,2.5,0.11,4.73c0.85,2.3,2.6,3.43,3.11,3.73"/>
<path class="st0" d="M144.69,250.38c-0.7-0.02-2.43,0.02-4.19,1.12c-2.23,1.39-3,3.52-3.19,4.12"/>
<path class="st1" d="M113,289l60.91,42.33c-13.94,19.53-36.69,31.17-60.91,31.17c-40.87,0-74.5-33.18-74.5-73.5
	s33.63-73.5,74.5-73.5c39.6,0,72.63,31.15,74.42,70.18L113,289z"/>
<path class="st1" d="M124.81,292.88l59.19,41.28c4.04-6.42,6.97-13.54,8.68-21.09c1.64-7.24,2.14-14.77,1.47-22.32L124.81,292.88z"
	/>
<path class="st0" d="M493.5,289.5l54.88,38.43c-12.53,17.89-33.04,28.57-54.88,28.57c-36.76,0-67-30.24-67-67s30.24-67,67-67
	c17.23,0,33.02,6.64,44.95,17.49"/>
<path class="st0" d="M537.86,239.38c12.74,11.64,21.09,28.06,21.97,46.47l-67.67,3.23"/>
<path class="st0" d="M538.45,239.99c0.87,0.79,1.72,1.6,2.54,2.44"/>
<path class="st0" d="M505.5,293l61.97-1.99c0.02,0.66,0.03,1.33,0.03,1.99c0,12.88-3.6,25.48-10.33,36.21L505.5,293z"/>
<line class="st0" x1="493.5" y1="289.5" x2="493.5" y2="222.5"/>
<line class="st0" x1="493.5" y1="289.5" x2="426.5" y2="289.5"/>
<line class="st0" x1="493.5" y1="289.5" x2="493.5" y2="356.5"/>
<line class="st0" x1="493.5" y1="289.5" x2="540.5" y2="242.5"/>
<line class="st0" x1="493.5" y1="289.5" x2="446.5" y2="242.5"/>
<line class="st0" x1="493.5" y1="289.5" x2="438.5" y2="328.5"/>
<circle class="st0" cx="463" cy="242" r="3.5"/>
<circle class="st0" cx="483" cy="235" r="3.5"/>
<circle class="st0" cx="481" cy="265" r="3.5"/>
<circle class="st0" cx="506" cy="236" r="3.5"/>
<circle class="st0" cx="519" cy="242" r="3.5"/>
<circle class="st0" cx="503" cy="266" r="3.5"/>
<circle class="st0" cx="517" cy="280" r="3.5"/>
<circle class="st0" cx="540" cy="261" r="3.5"/>
<circle class="st0" cx="543" cy="280" r="3.5"/>
<circle class="st0" cx="447" cy="261" r="3.5"/>
<circle class="st0" cx="442" cy="278" r="3.5"/>
<circle class="st0" cx="468" cy="279" r="3.5"/>
<circle class="st0" cx="442" cy="299" r="3.5"/>
<circle class="st0" cx="469" cy="297" r="3.5"/>
<circle class="st0" cx="458" cy="327" r="3.5"/>
<circle class="st0" cx="479" cy="337" r="3.5"/>
<circle class="st0" cx="484" cy="308" r="3.5"/>
<circle class="st0" cx="507" cy="337" r="3.5"/>
<circle class="st0" cx="526" cy="328" r="3.5"/>
<circle class="st0" cx="506" cy="309" r="3.5"/>
<circle class="st0" cx="551" cy="315" r="3.5"/>
<circle class="st0" cx="526" cy="298" r="3.5"/>
<circle class="st0" cx="553" cy="298" r="3.5"/>
<circle class="st0" cx="447" cy="312" r="3.5"/>
<path class="st0" d="M501.5,319.5c0.36,0.67,1,2.09,1,4c0,0.76-0.1,2.31-1,4"/>
<path class="st0" d="M519.5,314.5c-0.46,0.48-1.66,1.85-2,4c-0.4,2.55,0.68,4.48,1,5"/>
<path class="st0" d="M498.5,299.5c0.1,0.42,0.53,1.92,2,3c1.24,0.91,2.53,0.99,3,1"/>
<path class="st0" d="M518.5,336.5c-0.46,0.48-1.66,1.85-2,4c-0.4,2.55,0.68,4.48,1,5"/>
<path class="st0" d="M540.62,297.99c-0.01,0.36-0.04,2.73,1.88,4.51c2.03,1.88,4.55,1.56,4.88,1.51"/>
<path class="st0" d="M534.5,299.5c-0.46,0.48-1.66,1.85-2,4c-0.4,2.55,0.68,4.48,1,5"/>
<path class="st0" d="M487.26,320.08c-0.57,0.23-2.57,1.14-3.76,3.42c-1.01,1.94-0.85,3.76-0.76,4.42"/>
<path class="st0" d="M474.5,310.5c0.32,0.52,1.4,2.45,1,5c-0.34,2.15-1.54,3.52-2,4"/>
<path class="st0" d="M466.5,333.5c-0.46,0.48-1.66,1.85-2,4c-0.4,2.55,0.68,4.48,1,5"/>
<path class="st0" d="M466.41,302.97c-0.73-0.28-2.15-0.7-3.91-0.47c-2.71,0.35-4.4,1.99-4.91,2.53"/>
<path class="st0" d="M453.2,300.2c-0.13-0.75-0.5-2.26-1.7-3.7c-1.74-2.08-4.02-2.58-4.7-2.7"/>
<path class="st0" d="M453.74,266.08c2.16,0.19,4.01,1.52,4.76,3.42c0.85,2.15-0.07,4.09-0.24,4.42"/>
<path class="st0" d="M458.5,283.49c-0.65,0.37-2.09,1.06-4,1.01c-2.69-0.06-4.49-1.54-5-1.99"/>
<path class="st0" d="M466.68,252.64c0.56-0.21,2.5-0.88,4.82-0.14c2.29,0.73,3.48,2.36,3.82,2.86"/>
<path class="st0" d="M488.71,242.37c0.07,0.31,0.61,2.93-1.21,5.13c-1.59,1.92-3.83,2.1-4.21,2.13"/>
<path class="st0" d="M531.5,277.5c-0.46,0.48-1.66,1.85-2,4c-0.4,2.55,0.68,4.48,1,5"/>
<path class="st0" d="M528.5,263.5c1.52,1.2,2.29,3.11,2,5c-0.42,2.72-2.8,3.9-3,4"/>
<path class="st0" d="M501.39,245.77c-0.18,0.58-0.71,2.5,0.11,4.73c0.85,2.3,2.6,3.43,3.11,3.73"/>
<path class="st0" d="M524.69,250.38c-0.7-0.02-2.43,0.02-4.19,1.12c-2.23,1.39-3,3.52-3.19,4.12"/>
<path class="st1" d="M493,289l60.91,42.33c-13.94,19.53-36.69,31.17-60.91,31.17c-40.87,0-74.5-33.18-74.5-73.5
	s33.63-73.5,74.5-73.5c39.6,0,72.63,31.15,74.42,70.18L493,289z"/>
<path class="st1" d="M504.81,292.88l59.19,41.28c4.04-6.42,6.97-13.54,8.68-21.09c1.64-7.24,2.14-14.77,1.47-22.32L504.81,292.88z"
	/>
<path class="st0" d="M683.5,82.5l54.88,38.43c-12.53,17.89-33.04,28.57-54.88,28.57c-36.76,0-67-30.24-67-67s30.24-67,67-67
	c17.23,0,33.02,6.64,44.95,17.49"/>
<path class="st0" d="M727.86,32.38c12.74,11.64,21.09,28.06,21.97,46.47l-67.67,3.23"/>
<path class="st0" d="M728.45,32.99c0.87,0.79,1.72,1.6,2.54,2.44"/>
<path class="st0" d="M695.5,86l61.97-1.99c0.02,0.66,0.03,1.33,0.03,1.99c0,12.88-3.6,25.48-10.33,36.21L695.5,86z"/>
<line class="st0" x1="683.5" y1="82.5" x2="683.5" y2="15.5"/>
<line class="st0" x1="683.5" y1="82.5" x2="616.5" y2="82.5"/>
<line class="st0" x1="683.5" y1="82.5" x2="683.5" y2="149.5"/>
<line class="st0" x1="683.5" y1="82.5" x2="730.5" y2="35.5"/>
<line class="st0" x1="683.5" y1="82.5" x2="636.5" y2="35.5"/>
<line class="st0" x1="683.5" y1="82.5" x2="628.5" y2="121.5"/>
<circle class="st0" cx="653" cy="35" r="3.5"/>
<circle class="st0" cx="673" cy="28" r="3.5"/>
<circle class="st0" cx="671" cy="58" r="3.5"/>
<circle class="st0" cx="696" cy="29" r="3.5"/>
<circle class="st0" cx="709" cy="35" r="3.5"/>
<circle class="st0" cx="693" cy="59" r="3.5"/>
<circle class="st0" cx="707" cy="73" r="3.5"/>
<circle class="st0" cx="730" cy="54" r="3.5"/>
<circle class="st0" cx="733" cy="73" r="3.5"/>
<circle class="st0" cx="637" cy="54" r="3.5"/>
<circle class="st0" cx="632" cy="71" r="3.5"/>
<circle class="st0" cx="658" cy="72" r="3.5"/>
<circle class="st0" cx="632" cy="92" r="3.5"/>
<circle class="st0" cx="659" cy="90" r="3.5"/>
<circle class="st0" cx="648" cy="120" r="3.5"/>
<circle class="st0" cx="669" cy="130" r="3.5"/>
<circle class="st0" cx="674" cy="101" r="3.5"/>
<circle class="st0" cx="697" cy="130" r="3.5"/>
<circle class="st0" cx="716" cy="121" r="3.5"/>
<circle class="st0" cx="696" cy="102" r="3.5"/>
<circle class="st0" cx="741" cy="108" r="3.5"/>
<circle class="st0" cx="716" cy="91" r="3.5"/>
<circle class="st0" cx="743" cy="91" r="3.5"/>
<circle class="st0" cx="637" cy="105" r="3.5"/>
<path class="st0" d="M691.5,112.5c0.36,0.67,1,2.09,1,4c0,0.76-0.1,2.31-1,4"/>
<path class="st0" d="M709.5,107.5c-0.46,0.48-1.66,1.85-2,4c-0.4,2.55,0.68,4.48,1,5"/>
<path class="st0" d="M688.5,92.5c0.1,0.42,0.53,1.92,2,3c1.24,0.91,2.53,0.99,3,1"/>
<path class="st0" d="M708.5,129.5c-0.46,0.48-1.66,1.85-2,4c-0.4,2.55,0.68,4.48,1,5"/>
<path class="st0" d="M730.62,90.99c-0.01,0.36-0.04,2.73,1.88,4.51c2.03,1.88,4.55,1.56,4.88,1.51"/>
<path class="st0" d="M724.5,92.5c-0.46,0.48-1.66,1.85-2,4c-0.4,2.55,0.68,4.48,1,5"/>
<path class="st0" d="M677.26,113.08c-0.57,0.23-2.57,1.14-3.76,3.42c-1.01,1.94-0.85,3.76-0.76,4.42"/>
<path class="st0" d="M664.5,103.5c0.32,0.52,1.4,2.45,1,5c-0.34,2.15-1.54,3.52-2,4"/>
<path class="st0" d="M656.5,126.5c-0.46,0.48-1.66,1.85-2,4c-0.4,2.55,0.68,4.48,1,5"/>
<path class="st0" d="M656.41,95.97c-0.73-0.28-2.15-0.7-3.91-0.47c-2.71,0.35-4.4,1.99-4.91,2.53"/>
<path class="st0" d="M643.2,93.2c-0.13-0.75-0.5-2.26-1.7-3.7c-1.74-2.08-4.02-2.58-4.7-2.7"/>
<path class="st0" d="M643.74,59.08c2.16,0.19,4.01,1.52,4.76,3.42c0.85,2.15-0.07,4.09-0.24,4.42"/>
<path class="st0" d="M648.5,76.49c-0.65,0.37-2.09,1.06-4,1.01c-2.69-0.06-4.49-1.54-5-1.99"/>
<path class="st0" d="M656.68,45.64c0.56-0.21,2.5-0.88,4.82-0.14c2.29,0.73,3.48,2.36,3.82,2.86"/>
<path class="st0" d="M678.71,35.37c0.07,0.31,0.61,2.93-1.21,5.13c-1.59,1.92-3.83,2.1-4.21,2.13"/>
<path class="st0" d="M721.5,70.5c-0.46,0.48-1.66,1.85-2,4c-0.4,2.55,0.68,4.48,1,5"/>
<path class="st0" d="M718.5,56.5c1.52,1.2,2.29,3.11,2,5c-0.42,2.72-2.8,3.9-3,4"/>
<path class="st0" d="M691.39,38.77c-0.18,0.58-0.71,2.5,0.11,4.73c0.85,2.3,2.6,3.43,3.11,3.73"/>
<path class="st0" d="M714.69,43.38c-0.7-0.02-2.43,0.02-4.19,1.12c-2.23,1.39-3,3.52-3.19,4.12"/>
<path class="st1" d="M683,82l60.91,42.33c-13.94,19.53-36.69,31.17-60.91,31.17c-40.87,0-74.5-33.18-74.5-73.5S642.13,8.5,683,8.5
	c39.6,0,72.63,31.15,74.42,70.18L683,82z"/>
<path class="st1" d="M694.81,85.88l59.19,41.28c4.04-6.42,6.97-13.54,8.68-21.09c1.64-7.24,2.14-14.77,1.47-22.32L694.81,85.88z"/>
<path class="st0" d="M942.5,290.5l54.88,38.43c-12.53,17.89-33.04,28.57-54.88,28.57c-36.76,0-67-30.24-67-67s30.24-67,67-67
	c17.23,0,33.02,6.64,44.95,17.49"/>
<path class="st0" d="M986.86,240.38c12.74,11.64,21.09,28.06,21.97,46.47l-67.67,3.23"/>
<path class="st0" d="M987.45,240.99c0.87,0.79,1.72,1.6,2.54,2.44"/>
<path class="st0" d="M954.5,294l61.97-1.99c0.02,0.66,0.03,1.33,0.03,1.99c0,12.88-3.6,25.48-10.33,36.21L954.5,294z"/>
<line class="st0" x1="942.5" y1="290.5" x2="942.5" y2="223.5"/>
<line class="st0" x1="942.5" y1="290.5" x2="875.5" y2="290.5"/>
<line class="st0" x1="942.5" y1="290.5" x2="942.5" y2="357.5"/>
<line class="st0" x1="942.5" y1="290.5" x2="989.5" y2="243.5"/>
<line class="st0" x1="942.5" y1="290.5" x2="895.5" y2="243.5"/>
<line class="st0" x1="942.5" y1="290.5" x2="887.5" y2="329.5"/>
<circle class="st0" cx="912" cy="243" r="3.5"/>
<circle class="st0" cx="932" cy="236" r="3.5"/>
<circle class="st0" cx="930" cy="266" r="3.5"/>
<circle class="st0" cx="955" cy="237" r="3.5"/>
<circle class="st0" cx="968" cy="243" r="3.5"/>
<circle class="st0" cx="952" cy="267" r="3.5"/>
<circle class="st0" cx="966" cy="281" r="3.5"/>
<circle class="st0" cx="989" cy="262" r="3.5"/>
<circle class="st0" cx="992" cy="281" r="3.5"/>
<circle class="st0" cx="896" cy="262" r="3.5"/>
<circle class="st0" cx="891" cy="279" r="3.5"/>
<circle class="st0" cx="917" cy="280" r="3.5"/>
<circle class="st0" cx="891" cy="300" r="3.5"/>
<circle class="st0" cx="918" cy="298" r="3.5"/>
<circle class="st0" cx="907" cy="328" r="3.5"/>
<circle class="st0" cx="928" cy="338" r="3.5"/>
<circle class="st0" cx="933" cy="309" r="3.5"/>
<circle class="st0" cx="956" cy="338" r="3.5"/>
<circle class="st0" cx="975" cy="329" r="3.5"/>
<circle class="st0" cx="955" cy="310" r="3.5"/>
<circle class="st0" cx="1000" cy="316" r="3.5"/>
<circle class="st0" cx="975" cy="299" r="3.5"/>
<circle class="st0" cx="1002" cy="299" r="3.5"/>
<circle class="st0" cx="896" cy="313" r="3.5"/>
<path class="st0" d="M950.5,320.5c0.36,0.67,1,2.09,1,4c0,0.76-0.1,2.31-1,4"/>
<path class="st0" d="M968.5,315.5c-0.46,0.48-1.66,1.85-2,4c-0.4,2.55,0.68,4.48,1,5"/>
<path class="st0" d="M947.5,300.5c0.1,0.42,0.53,1.92,2,3c1.24,0.91,2.53,0.99,3,1"/>
<path class="st0" d="M967.5,337.5c-0.46,0.48-1.66,1.85-2,4c-0.4,2.55,0.68,4.48,1,5"/>
<path class="st0" d="M989.62,298.99c-0.01,0.36-0.04,2.73,1.88,4.51c2.03,1.88,4.55,1.56,4.88,1.51"/>
<path class="st0" d="M983.5,300.5c-0.46,0.48-1.66,1.85-2,4c-0.4,2.55,0.68,4.48,1,5"/>
<path class="st0" d="M936.26,321.08c-0.57,0.23-2.57,1.14-3.76,3.42c-1.01,1.94-0.85,3.76-0.76,4.42"/>
<path class="st0" d="M923.5,311.5c0.32,0.52,1.4,2.45,1,5c-0.34,2.15-1.54,3.52-2,4"/>
<path class="st0" d="M915.5,334.5c-0.46,0.48-1.66,1.85-2,4c-0.4,2.55,0.68,4.48,1,5"/>
<path class="st0" d="M915.41,303.97c-0.73-0.28-2.15-0.7-3.91-0.47c-2.71,0.35-4.4,1.99-4.91,2.53"/>
<path class="st0" d="M902.2,301.2c-0.13-0.75-0.5-2.26-1.7-3.7c-1.74-2.08-4.02-2.58-4.7-2.7"/>
<path class="st0" d="M902.74,267.08c2.16,0.19,4.01,1.52,4.76,3.42c0.85,2.15-0.07,4.09-0.24,4.42"/>
<path class="st0" d="M907.5,284.49c-0.65,0.37-2.09,1.06-4,1.01c-2.69-0.06-4.49-1.54-5-1.99"/>
<path class="st0" d="M915.68,253.64c0.56-0.21,2.5-0.88,4.82-0.14c2.29,0.73,3.48,2.36,3.82,2.86"/>
<path class="st0" d="M937.71,243.37c0.07,0.31,0.61,2.93-1.21,5.13c-1.59,1.92-3.83,2.1-4.21,2.13"/>
<path class="st0" d="M980.5,278.5c-0.46,0.48-1.66,1.85-2,4c-0.4,2.55,0.68,4.48,1,5"/>
<path class="st0" d="M977.5,264.5c1.52,1.2,2.29,3.11,2,5c-0.42,2.72-2.8,3.9-3,4"/>
<path class="st0" d="M950.39,246.77c-0.18,0.58-0.71,2.5,0.11,4.73c0.85,2.3,2.6,3.43,3.11,3.73"/>
<path class="st0" d="M973.69,251.38c-0.7-0.02-2.43,0.02-4.19,1.12c-2.23,1.39-3,3.52-3.19,4.12"/>
<path class="st1" d="M942,290l60.91,42.33c-13.94,19.53-36.69,31.17-60.91,31.17c-40.87,0-74.5-33.18-74.5-73.5
	s33.63-73.5,74.5-73.5c39.6,0,72.63,31.15,74.42,70.18L942,290z"/>
<path class="st1" d="M953.81,293.88l59.19,41.28c4.04-6.42,6.97-13.54,8.68-21.09c1.64-7.24,2.14-14.77,1.47-22.32L953.81,293.88z"
	/>
<path class="st0" d="M1143.5,82.5l54.88,38.43c-12.53,17.89-33.04,28.57-54.88,28.57c-36.76,0-67-30.24-67-67s30.24-67,67-67
	c17.23,0,33.02,6.64,44.95,17.49"/>
<path class="st0" d="M1187.86,32.38c12.74,11.64,21.09,28.06,21.97,46.47l-67.67,3.23"/>
<path class="st0" d="M1188.45,32.99c0.87,0.79,1.72,1.6,2.54,2.44"/>
<path class="st0" d="M1155.5,86l61.97-1.99c0.02,0.66,0.03,1.33,0.03,1.99c0,12.88-3.6,25.48-10.33,36.21L1155.5,86z"/>
<line class="st0" x1="1143.5" y1="82.5" x2="1143.5" y2="15.5"/>
<line class="st0" x1="1143.5" y1="82.5" x2="1076.5" y2="82.5"/>
<line class="st0" x1="1143.5" y1="82.5" x2="1143.5" y2="149.5"/>
<line class="st0" x1="1143.5" y1="82.5" x2="1190.5" y2="35.5"/>
<line class="st0" x1="1143.5" y1="82.5" x2="1096.5" y2="35.5"/>
<line class="st0" x1="1143.5" y1="82.5" x2="1088.5" y2="121.5"/>
<circle class="st0" cx="1113" cy="35" r="3.5"/>
<circle class="st0" cx="1133" cy="28" r="3.5"/>
<circle class="st0" cx="1131" cy="58" r="3.5"/>
<circle class="st0" cx="1156" cy="29" r="3.5"/>
<circle class="st0" cx="1169" cy="35" r="3.5"/>
<circle class="st0" cx="1153" cy="59" r="3.5"/>
<circle class="st0" cx="1167" cy="73" r="3.5"/>
<circle class="st0" cx="1190" cy="54" r="3.5"/>
<circle class="st0" cx="1193" cy="73" r="3.5"/>
<circle class="st0" cx="1097" cy="54" r="3.5"/>
<circle class="st0" cx="1092" cy="71" r="3.5"/>
<circle class="st0" cx="1118" cy="72" r="3.5"/>
<circle class="st0" cx="1092" cy="92" r="3.5"/>
<circle class="st0" cx="1119" cy="90" r="3.5"/>
<circle class="st0" cx="1108" cy="120" r="3.5"/>
<circle class="st0" cx="1129" cy="130" r="3.5"/>
<circle class="st0" cx="1134" cy="101" r="3.5"/>
<circle class="st0" cx="1157" cy="130" r="3.5"/>
<circle class="st0" cx="1176" cy="121" r="3.5"/>
<circle class="st0" cx="1156" cy="102" r="3.5"/>
<circle class="st0" cx="1201" cy="108" r="3.5"/>
<circle class="st0" cx="1176" cy="91" r="3.5"/>
<circle class="st0" cx="1203" cy="91" r="3.5"/>
<circle class="st0" cx="1097" cy="105" r="3.5"/>
<path class="st0" d="M1151.5,112.5c0.36,0.67,1,2.09,1,4c0,0.76-0.1,2.31-1,4"/>
<path class="st0" d="M1169.5,107.5c-0.46,0.48-1.66,1.85-2,4c-0.4,2.55,0.68,4.48,1,5"/>
<path class="st0" d="M1148.5,92.5c0.1,0.42,0.53,1.92,2,3c1.24,0.91,2.53,0.99,3,1"/>
<path class="st0" d="M1168.5,129.5c-0.46,0.48-1.66,1.85-2,4c-0.4,2.55,0.68,4.48,1,5"/>
<path class="st0" d="M1190.62,90.99c-0.01,0.36-0.04,2.73,1.88,4.51c2.03,1.88,4.55,1.56,4.88,1.51"/>
<path class="st0" d="M1184.5,92.5c-0.46,0.48-1.66,1.85-2,4c-0.4,2.55,0.68,4.48,1,5"/>
<path class="st0" d="M1137.26,113.08c-0.57,0.23-2.57,1.14-3.76,3.42c-1.01,1.94-0.85,3.76-0.76,4.42"/>
<path class="st0" d="M1124.5,103.5c0.32,0.52,1.4,2.45,1,5c-0.34,2.15-1.54,3.52-2,4"/>
<path class="st0" d="M1116.5,126.5c-0.46,0.48-1.66,1.85-2,4c-0.4,2.55,0.68,4.48,1,5"/>
<path class="st0" d="M1116.41,95.97c-0.73-0.28-2.15-0.7-3.91-0.47c-2.71,0.35-4.4,1.99-4.91,2.53"/>
<path class="st0" d="M1103.2,93.2c-0.13-0.75-0.5-2.26-1.7-3.7c-1.74-2.08-4.02-2.58-4.7-2.7"/>
<path class="st0" d="M1103.74,59.08c2.16,0.19,4.01,1.52,4.76,3.42c0.85,2.15-0.07,4.09-0.24,4.42"/>
<path class="st0" d="M1108.5,76.49c-0.65,0.37-2.09,1.06-4,1.01c-2.69-0.06-4.49-1.54-5-1.99"/>
<path class="st0" d="M1116.68,45.64c0.56-0.21,2.5-0.88,4.82-0.14c2.29,0.73,3.48,2.36,3.82,2.86"/>
<path class="st0" d="M1138.71,35.37c0.07,0.31,0.61,2.93-1.21,5.13c-1.59,1.92-3.83,2.1-4.21,2.13"/>
<path class="st0" d="M1181.5,70.5c-0.46,0.48-1.66,1.85-2,4c-0.4,2.55,0.68,4.48,1,5"/>
<path class="st0" d="M1178.5,56.5c1.52,1.2,2.29,3.11,2,5c-0.42,2.72-2.8,3.9-3,4"/>
<path class="st0" d="M1151.39,38.77c-0.18,0.58-0.71,2.5,0.11,4.73c0.85,2.3,2.6,3.43,3.11,3.73"/>
<path class="st0" d="M1174.69,43.38c-0.7-0.02-2.43,0.02-4.19,1.12c-2.23,1.39-3,3.52-3.19,4.12"/>
<path class="st1" d="M1143,82l60.91,42.33c-13.94,19.53-36.69,31.17-60.91,31.17c-40.87,0-74.5-33.18-74.5-73.5
	s33.63-73.5,74.5-73.5c39.6,0,72.63,31.15,74.42,70.18L1143,82z"/>
<path class="st1" d="M1154.81,85.88l59.19,41.28c4.04-6.42,6.97-13.54,8.68-21.09c1.64-7.24,2.14-14.77,1.47-22.32L1154.81,85.88z"
	/>
<path class="st0" d="M261.5,503.5l54.88,38.43c-12.53,17.89-33.04,28.57-54.88,28.57c-36.76,0-67-30.24-67-67s30.24-67,67-67
	c17.23,0,33.02,6.64,44.95,17.49"/>
<path class="st0" d="M305.86,453.38c12.74,11.64,21.09,28.06,21.97,46.47l-67.67,3.23"/>
<path class="st0" d="M306.45,453.99c0.87,0.79,1.72,1.6,2.54,2.44"/>
<path class="st0" d="M273.5,507l61.97-1.99c0.02,0.66,0.03,1.33,0.03,1.99c0,12.88-3.6,25.48-10.33,36.21L273.5,507z"/>
<line class="st0" x1="261.5" y1="503.5" x2="261.5" y2="436.5"/>
<line class="st0" x1="261.5" y1="503.5" x2="194.5" y2="503.5"/>
<line class="st0" x1="261.5" y1="503.5" x2="261.5" y2="570.5"/>
<line class="st0" x1="261.5" y1="503.5" x2="308.5" y2="456.5"/>
<line class="st0" x1="261.5" y1="503.5" x2="214.5" y2="456.5"/>
<line class="st0" x1="261.5" y1="503.5" x2="206.5" y2="542.5"/>
<circle class="st0" cx="231" cy="456" r="3.5"/>
<circle class="st0" cx="251" cy="449" r="3.5"/>
<circle class="st0" cx="249" cy="479" r="3.5"/>
<circle class="st0" cx="274" cy="450" r="3.5"/>
<circle class="st0" cx="287" cy="456" r="3.5"/>
<circle class="st0" cx="271" cy="480" r="3.5"/>
<circle class="st0" cx="285" cy="494" r="3.5"/>
<circle class="st0" cx="308" cy="475" r="3.5"/>
<circle class="st0" cx="311" cy="494" r="3.5"/>
<circle class="st0" cx="215" cy="475" r="3.5"/>
<circle class="st0" cx="210" cy="492" r="3.5"/>
<circle class="st0" cx="236" cy="493" r="3.5"/>
<circle class="st0" cx="210" cy="513" r="3.5"/>
<circle class="st0" cx="237" cy="511" r="3.5"/>
<circle class="st0" cx="226" cy="541" r="3.5"/>
<circle class="st0" cx="247" cy="551" r="3.5"/>
<circle class="st0" cx="252" cy="522" r="3.5"/>
<circle class="st0" cx="275" cy="551" r="3.5"/>
<circle class="st0" cx="294" cy="542" r="3.5"/>
<circle class="st0" cx="274" cy="523" r="3.5"/>
<circle class="st0" cx="319" cy="529" r="3.5"/>
<circle class="st0" cx="294" cy="512" r="3.5"/>
<circle class="st0" cx="321" cy="512" r="3.5"/>
<circle class="st0" cx="215" cy="526" r="3.5"/>
<path class="st0" d="M269.5,533.5c0.36,0.67,1,2.09,1,4c0,0.76-0.1,2.31-1,4"/>
<path class="st0" d="M287.5,528.5c-0.46,0.48-1.66,1.85-2,4c-0.4,2.55,0.68,4.48,1,5"/>
<path class="st0" d="M266.5,513.5c0.1,0.42,0.53,1.92,2,3c1.24,0.91,2.53,0.99,3,1"/>
<path class="st0" d="M286.5,550.5c-0.46,0.48-1.66,1.85-2,4c-0.4,2.55,0.68,4.48,1,5"/>
<path class="st0" d="M308.62,511.99c-0.01,0.36-0.04,2.73,1.88,4.51c2.03,1.88,4.55,1.56,4.88,1.51"/>
<path class="st0" d="M302.5,513.5c-0.46,0.48-1.66,1.85-2,4c-0.4,2.55,0.68,4.48,1,5"/>
<path class="st0" d="M255.26,534.08c-0.57,0.23-2.57,1.14-3.76,3.42c-1.01,1.94-0.85,3.76-0.76,4.42"/>
<path class="st0" d="M242.5,524.5c0.32,0.52,1.4,2.45,1,5c-0.34,2.15-1.54,3.52-2,4"/>
<path class="st0" d="M234.5,547.5c-0.46,0.48-1.66,1.85-2,4c-0.4,2.55,0.68,4.48,1,5"/>
<path class="st0" d="M234.41,516.97c-0.73-0.28-2.15-0.7-3.91-0.47c-2.71,0.35-4.4,1.99-4.91,2.53"/>
<path class="st0" d="M221.2,514.2c-0.13-0.75-0.5-2.26-1.7-3.7c-1.74-2.08-4.02-2.58-4.7-2.7"/>
<path class="st0" d="M221.74,480.08c2.16,0.19,4.01,1.52,4.76,3.42c0.85,2.15-0.07,4.09-0.24,4.42"/>
<path class="st0" d="M226.5,497.49c-0.65,0.37-2.09,1.06-4,1.01c-2.69-0.06-4.49-1.54-5-1.99"/>
<path class="st0" d="M234.68,466.64c0.56-0.21,2.5-0.88,4.82-0.14c2.29,0.73,3.48,2.36,3.82,2.86"/>
<path class="st0" d="M256.71,456.37c0.07,0.31,0.61,2.93-1.21,5.13c-1.59,1.92-3.83,2.1-4.21,2.13"/>
<path class="st0" d="M299.5,491.5c-0.46,0.48-1.66,1.85-2,4c-0.4,2.55,0.68,4.48,1,5"/>
<path class="st0" d="M296.5,477.5c1.52,1.2,2.29,3.11,2,5c-0.42,2.72-2.8,3.9-3,4"/>
<path class="st0" d="M269.39,459.77c-0.18,0.58-0.71,2.5,0.11,4.73c0.85,2.3,2.6,3.43,3.11,3.73"/>
<path class="st0" d="M292.69,464.38c-0.7-0.02-2.43,0.02-4.19,1.12c-2.23,1.39-3,3.52-3.19,4.12"/>
<path class="st1" d="M261,503l60.91,42.33c-13.94,19.53-36.69,31.17-60.91,31.17c-40.87,0-74.5-33.18-74.5-73.5
	s33.63-73.5,74.5-73.5c39.6,0,72.63,31.15,74.42,70.18L261,503z"/>
<path class="st1" d="M272.81,506.88l59.19,41.28c4.04-6.42,6.97-13.54,8.68-21.09c1.64-7.24,2.14-14.77,1.47-22.32L272.81,506.88z"
	/>
<path class="st0" d="M114.5,711.5l54.88,38.43c-12.53,17.89-33.04,28.57-54.88,28.57c-36.76,0-67-30.24-67-67s30.24-67,67-67
	c17.23,0,33.02,6.64,44.95,17.49"/>
<path class="st0" d="M158.86,661.38c12.74,11.64,21.09,28.06,21.97,46.47l-67.67,3.23"/>
<path class="st0" d="M159.45,661.99c0.87,0.79,1.72,1.6,2.54,2.44"/>
<path class="st0" d="M126.5,715l61.97-1.99c0.02,0.66,0.03,1.33,0.03,1.99c0,12.88-3.6,25.48-10.33,36.21L126.5,715z"/>
<line class="st0" x1="114.5" y1="711.5" x2="114.5" y2="644.5"/>
<line class="st0" x1="114.5" y1="711.5" x2="47.5" y2="711.5"/>
<line class="st0" x1="114.5" y1="711.5" x2="114.5" y2="778.5"/>
<line class="st0" x1="114.5" y1="711.5" x2="161.5" y2="664.5"/>
<line class="st0" x1="114.5" y1="711.5" x2="67.5" y2="664.5"/>
<line class="st0" x1="114.5" y1="711.5" x2="59.5" y2="750.5"/>
<circle class="st0" cx="84" cy="664" r="3.5"/>
<circle class="st0" cx="104" cy="657" r="3.5"/>
<circle class="st0" cx="102" cy="687" r="3.5"/>
<circle class="st0" cx="127" cy="658" r="3.5"/>
<circle class="st0" cx="140" cy="664" r="3.5"/>
<circle class="st0" cx="124" cy="688" r="3.5"/>
<circle class="st0" cx="138" cy="702" r="3.5"/>
<circle class="st0" cx="161" cy="683" r="3.5"/>
<circle class="st0" cx="164" cy="702" r="3.5"/>
<circle class="st0" cx="68" cy="683" r="3.5"/>
<circle class="st0" cx="63" cy="700" r="3.5"/>
<circle class="st0" cx="89" cy="701" r="3.5"/>
<circle class="st0" cx="63" cy="721" r="3.5"/>
<circle class="st0" cx="90" cy="719" r="3.5"/>
<circle class="st0" cx="79" cy="749" r="3.5"/>
<circle class="st0" cx="100" cy="759" r="3.5"/>
<circle class="st0" cx="105" cy="730" r="3.5"/>
<circle class="st0" cx="128" cy="759" r="3.5"/>
<circle class="st0" cx="147" cy="750" r="3.5"/>
<circle class="st0" cx="127" cy="731" r="3.5"/>
<circle class="st0" cx="172" cy="737" r="3.5"/>
<circle class="st0" cx="147" cy="720" r="3.5"/>
<circle class="st0" cx="174" cy="720" r="3.5"/>
<circle class="st0" cx="68" cy="734" r="3.5"/>
<path class="st0" d="M122.5,741.5c0.36,0.67,1,2.09,1,4c0,0.76-0.1,2.31-1,4"/>
<path class="st0" d="M140.5,736.5c-0.46,0.48-1.66,1.85-2,4c-0.4,2.55,0.68,4.48,1,5"/>
<path class="st0" d="M119.5,721.5c0.1,0.42,0.53,1.92,2,3c1.24,0.91,2.53,0.99,3,1"/>
<path class="st0" d="M139.5,758.5c-0.46,0.48-1.66,1.85-2,4c-0.4,2.55,0.68,4.48,1,5"/>
<path class="st0" d="M161.62,719.99c-0.01,0.36-0.04,2.73,1.88,4.51c2.03,1.88,4.55,1.56,4.88,1.51"/>
<path class="st0" d="M155.5,721.5c-0.46,0.48-1.66,1.85-2,4c-0.4,2.55,0.68,4.48,1,5"/>
<path class="st0" d="M108.26,742.08c-0.57,0.23-2.57,1.14-3.76,3.42c-1.01,1.94-0.85,3.76-0.76,4.42"/>
<path class="st0" d="M95.5,732.5c0.32,0.52,1.4,2.45,1,5c-0.34,2.15-1.54,3.52-2,4"/>
<path class="st0" d="M87.5,755.5c-0.46,0.48-1.66,1.85-2,4c-0.4,2.55,0.68,4.48,1,5"/>
<path class="st0" d="M87.41,724.97c-0.73-0.28-2.15-0.7-3.91-0.47c-2.71,0.35-4.4,1.99-4.91,2.53"/>
<path class="st0" d="M74.2,722.2c-0.13-0.75-0.5-2.26-1.7-3.7c-1.74-2.08-4.02-2.58-4.7-2.7"/>
<path class="st0" d="M74.74,688.08c2.16,0.19,4.01,1.52,4.76,3.42c0.85,2.15-0.07,4.09-0.24,4.42"/>
<path class="st0" d="M79.5,705.49c-0.65,0.37-2.09,1.06-4,1.01c-2.69-0.06-4.49-1.54-5-1.99"/>
<path class="st0" d="M87.68,674.64c0.56-0.21,2.5-0.88,4.82-0.14c2.29,0.73,3.48,2.36,3.82,2.86"/>
<path class="st0" d="M109.71,664.37c0.07,0.31,0.61,2.93-1.21,5.13c-1.59,1.92-3.83,2.1-4.21,2.13"/>
<path class="st0" d="M152.5,699.5c-0.46,0.48-1.66,1.85-2,4c-0.4,2.55,0.68,4.48,1,5"/>
<path class="st0" d="M149.5,685.5c1.52,1.2,2.29,3.11,2,5c-0.42,2.72-2.8,3.9-3,4"/>
<path class="st0" d="M122.39,667.77c-0.18,0.58-0.71,2.5,0.11,4.73c0.85,2.3,2.6,3.43,3.11,3.73"/>
<path class="st0" d="M145.69,672.38c-0.7-0.02-2.43,0.02-4.19,1.12c-2.23,1.39-3,3.52-3.19,4.12"/>
<path class="st1" d="M114,711l60.91,42.33c-13.94,19.53-36.69,31.17-60.91,31.17c-40.87,0-74.5-33.18-74.5-73.5
	s33.63-73.5,74.5-73.5c39.6,0,72.63,31.15,74.42,70.18L114,711z"/>
<path class="st1" d="M125.81,714.88l59.19,41.28c4.04-6.42,6.97-13.54,8.68-21.09c1.64-7.24,2.14-14.77,1.47-22.32L125.81,714.88z"
	/>
<path class="st0" d="M494.5,711.5l54.88,38.43c-12.53,17.89-33.04,28.57-54.88,28.57c-36.76,0-67-30.24-67-67s30.24-67,67-67
	c17.23,0,33.02,6.64,44.95,17.49"/>
<path class="st0" d="M538.86,661.38c12.74,11.64,21.09,28.06,21.97,46.47l-67.67,3.23"/>
<path class="st0" d="M539.45,661.99c0.87,0.79,1.72,1.6,2.54,2.44"/>
<path class="st0" d="M506.5,715l61.97-1.99c0.02,0.66,0.03,1.33,0.03,1.99c0,12.88-3.6,25.48-10.33,36.21L506.5,715z"/>
<line class="st0" x1="494.5" y1="711.5" x2="494.5" y2="644.5"/>
<line class="st0" x1="494.5" y1="711.5" x2="427.5" y2="711.5"/>
<line class="st0" x1="494.5" y1="711.5" x2="494.5" y2="778.5"/>
<line class="st0" x1="494.5" y1="711.5" x2="541.5" y2="664.5"/>
<line class="st0" x1="494.5" y1="711.5" x2="447.5" y2="664.5"/>
<line class="st0" x1="494.5" y1="711.5" x2="439.5" y2="750.5"/>
<circle class="st0" cx="464" cy="664" r="3.5"/>
<circle class="st0" cx="484" cy="657" r="3.5"/>
<circle class="st0" cx="482" cy="687" r="3.5"/>
<circle class="st0" cx="507" cy="658" r="3.5"/>
<circle class="st0" cx="520" cy="664" r="3.5"/>
<circle class="st0" cx="504" cy="688" r="3.5"/>
<circle class="st0" cx="518" cy="702" r="3.5"/>
<circle class="st0" cx="541" cy="683" r="3.5"/>
<circle class="st0" cx="544" cy="702" r="3.5"/>
<circle class="st0" cx="448" cy="683" r="3.5"/>
<circle class="st0" cx="443" cy="700" r="3.5"/>
<circle class="st0" cx="469" cy="701" r="3.5"/>
<circle class="st0" cx="443" cy="721" r="3.5"/>
<circle class="st0" cx="470" cy="719" r="3.5"/>
<circle class="st0" cx="459" cy="749" r="3.5"/>
<circle class="st0" cx="480" cy="759" r="3.5"/>
<circle class="st0" cx="485" cy="730" r="3.5"/>
<circle class="st0" cx="508" cy="759" r="3.5"/>
<circle class="st0" cx="527" cy="750" r="3.5"/>
<circle class="st0" cx="507" cy="731" r="3.5"/>
<circle class="st0" cx="552" cy="737" r="3.5"/>
<circle class="st0" cx="527" cy="720" r="3.5"/>
<circle class="st0" cx="554" cy="720" r="3.5"/>
<circle class="st0" cx="448" cy="734" r="3.5"/>
<path class="st0" d="M502.5,741.5c0.36,0.67,1,2.09,1,4c0,0.76-0.1,2.31-1,4"/>
<path class="st0" d="M520.5,736.5c-0.46,0.48-1.66,1.85-2,4c-0.4,2.55,0.68,4.48,1,5"/>
<path class="st0" d="M499.5,721.5c0.1,0.42,0.53,1.92,2,3c1.24,0.91,2.53,0.99,3,1"/>
<path class="st0" d="M519.5,758.5c-0.46,0.48-1.66,1.85-2,4c-0.4,2.55,0.68,4.48,1,5"/>
<path class="st0" d="M541.62,719.99c-0.01,0.36-0.04,2.73,1.88,4.51c2.03,1.88,4.55,1.56,4.88,1.51"/>
<path class="st0" d="M535.5,721.5c-0.46,0.48-1.66,1.85-2,4c-0.4,2.55,0.68,4.48,1,5"/>
<path class="st0" d="M488.26,742.08c-0.57,0.23-2.57,1.14-3.76,3.42c-1.01,1.94-0.85,3.76-0.76,4.42"/>
<path class="st0" d="M475.5,732.5c0.32,0.52,1.4,2.45,1,5c-0.34,2.15-1.54,3.52-2,4"/>
<path class="st0" d="M467.5,755.5c-0.46,0.48-1.66,1.85-2,4c-0.4,2.55,0.68,4.48,1,5"/>
<path class="st0" d="M467.41,724.97c-0.73-0.28-2.15-0.7-3.91-0.47c-2.71,0.35-4.4,1.99-4.91,2.53"/>
<path class="st0" d="M454.2,722.2c-0.13-0.75-0.5-2.26-1.7-3.7c-1.74-2.08-4.02-2.58-4.7-2.7"/>
<path class="st0" d="M454.74,688.08c2.16,0.19,4.01,1.52,4.76,3.42c0.85,2.15-0.07,4.09-0.24,4.42"/>
<path class="st0" d="M459.5,705.49c-0.65,0.37-2.09,1.06-4,1.01c-2.69-0.06-4.49-1.54-5-1.99"/>
<path class="st0" d="M467.68,674.64c0.56-0.21,2.5-0.88,4.82-0.14c2.29,0.73,3.48,2.36,3.82,2.86"/>
<path class="st0" d="M489.71,664.37c0.07,0.31,0.61,2.93-1.21,5.13c-1.59,1.92-3.83,2.1-4.21,2.13"/>
<path class="st0" d="M532.5,699.5c-0.46,0.48-1.66,1.85-2,4c-0.4,2.55,0.68,4.48,1,5"/>
<path class="st0" d="M529.5,685.5c1.52,1.2,2.29,3.11,2,5c-0.42,2.72-2.8,3.9-3,4"/>
<path class="st0" d="M502.39,667.77c-0.18,0.58-0.71,2.5,0.11,4.73c0.85,2.3,2.6,3.43,3.11,3.73"/>
<path class="st0" d="M525.69,672.38c-0.7-0.02-2.43,0.02-4.19,1.12c-2.23,1.39-3,3.52-3.19,4.12"/>
<path class="st1" d="M494,711l60.91,42.33c-13.94,19.53-36.69,31.17-60.91,31.17c-40.87,0-74.5-33.18-74.5-73.5
	s33.63-73.5,74.5-73.5c39.6,0,72.63,31.15,74.42,70.18L494,711z"/>
<path class="st1" d="M505.81,714.88l59.19,41.28c4.04-6.42,6.97-13.54,8.68-21.09c1.64-7.24,2.14-14.77,1.47-22.32L505.81,714.88z"
	/>
<path class="st0" d="M684.5,504.5l54.88,38.43c-12.53,17.89-33.04,28.57-54.88,28.57c-36.76,0-67-30.24-67-67s30.24-67,67-67
	c17.23,0,33.02,6.64,44.95,17.49"/>
<path class="st0" d="M728.86,454.38c12.74,11.64,21.09,28.06,21.97,46.47l-67.67,3.23"/>
<path class="st0" d="M729.45,454.99c0.87,0.79,1.72,1.6,2.54,2.44"/>
<path class="st0" d="M696.5,508l61.97-1.99c0.02,0.66,0.03,1.33,0.03,1.99c0,12.88-3.6,25.48-10.33,36.21L696.5,508z"/>
<line class="st0" x1="684.5" y1="504.5" x2="684.5" y2="437.5"/>
<line class="st0" x1="684.5" y1="504.5" x2="617.5" y2="504.5"/>
<line class="st0" x1="684.5" y1="504.5" x2="684.5" y2="571.5"/>
<line class="st0" x1="684.5" y1="504.5" x2="731.5" y2="457.5"/>
<line class="st0" x1="684.5" y1="504.5" x2="637.5" y2="457.5"/>
<line class="st0" x1="684.5" y1="504.5" x2="629.5" y2="543.5"/>
<circle class="st0" cx="654" cy="457" r="3.5"/>
<circle class="st0" cx="674" cy="450" r="3.5"/>
<circle class="st0" cx="672" cy="480" r="3.5"/>
<circle class="st0" cx="697" cy="451" r="3.5"/>
<circle class="st0" cx="710" cy="457" r="3.5"/>
<circle class="st0" cx="694" cy="481" r="3.5"/>
<circle class="st0" cx="708" cy="495" r="3.5"/>
<circle class="st0" cx="731" cy="476" r="3.5"/>
<circle class="st0" cx="734" cy="495" r="3.5"/>
<circle class="st0" cx="638" cy="476" r="3.5"/>
<circle class="st0" cx="633" cy="493" r="3.5"/>
<circle class="st0" cx="659" cy="494" r="3.5"/>
<circle class="st0" cx="633" cy="514" r="3.5"/>
<circle class="st0" cx="660" cy="512" r="3.5"/>
<circle class="st0" cx="649" cy="542" r="3.5"/>
<circle class="st0" cx="670" cy="552" r="3.5"/>
<circle class="st0" cx="675" cy="523" r="3.5"/>
<circle class="st0" cx="698" cy="552" r="3.5"/>
<circle class="st0" cx="717" cy="543" r="3.5"/>
<circle class="st0" cx="697" cy="524" r="3.5"/>
<circle class="st0" cx="742" cy="530" r="3.5"/>
<circle class="st0" cx="717" cy="513" r="3.5"/>
<circle class="st0" cx="744" cy="513" r="3.5"/>
<circle class="st0" cx="638" cy="527" r="3.5"/>
<path class="st0" d="M692.5,534.5c0.36,0.67,1,2.09,1,4c0,0.76-0.1,2.31-1,4"/>
<path class="st0" d="M710.5,529.5c-0.46,0.48-1.66,1.85-2,4c-0.4,2.55,0.68,4.48,1,5"/>
<path class="st0" d="M689.5,514.5c0.1,0.42,0.53,1.92,2,3c1.24,0.91,2.53,0.99,3,1"/>
<path class="st0" d="M709.5,551.5c-0.46,0.48-1.66,1.85-2,4c-0.4,2.55,0.68,4.48,1,5"/>
<path class="st0" d="M731.62,512.99c-0.01,0.36-0.04,2.73,1.88,4.51c2.03,1.88,4.55,1.56,4.88,1.51"/>
<path class="st0" d="M725.5,514.5c-0.46,0.48-1.66,1.85-2,4c-0.4,2.55,0.68,4.48,1,5"/>
<path class="st0" d="M678.26,535.08c-0.57,0.23-2.57,1.14-3.76,3.42c-1.01,1.94-0.85,3.76-0.76,4.42"/>
<path class="st0" d="M665.5,525.5c0.32,0.52,1.4,2.45,1,5c-0.34,2.15-1.54,3.52-2,4"/>
<path class="st0" d="M657.5,548.5c-0.46,0.48-1.66,1.85-2,4c-0.4,2.55,0.68,4.48,1,5"/>
<path class="st0" d="M657.41,517.97c-0.73-0.28-2.15-0.7-3.91-0.47c-2.71,0.35-4.4,1.99-4.91,2.53"/>
<path class="st0" d="M644.2,515.2c-0.13-0.75-0.5-2.26-1.7-3.7c-1.74-2.08-4.02-2.58-4.7-2.7"/>
<path class="st0" d="M644.74,481.08c2.16,0.19,4.01,1.52,4.76,3.42c0.85,2.15-0.07,4.09-0.24,4.42"/>
<path class="st0" d="M649.5,498.49c-0.65,0.37-2.09,1.06-4,1.01c-2.69-0.06-4.49-1.54-5-1.99"/>
<path class="st0" d="M657.68,467.64c0.56-0.21,2.5-0.88,4.82-0.14c2.29,0.73,3.48,2.36,3.82,2.86"/>
<path class="st0" d="M679.71,457.37c0.07,0.31,0.61,2.93-1.21,5.13c-1.59,1.92-3.83,2.1-4.21,2.13"/>
<path class="st0" d="M722.5,492.5c-0.46,0.48-1.66,1.85-2,4c-0.4,2.55,0.68,4.48,1,5"/>
<path class="st0" d="M719.5,478.5c1.52,1.2,2.29,3.11,2,5c-0.42,2.72-2.8,3.9-3,4"/>
<path class="st0" d="M692.39,460.77c-0.18,0.58-0.71,2.5,0.11,4.73c0.85,2.3,2.6,3.43,3.11,3.73"/>
<path class="st0" d="M715.69,465.38c-0.7-0.02-2.43,0.02-4.19,1.12c-2.23,1.39-3,3.52-3.19,4.12"/>
<path class="st1" d="M684,504l60.91,42.33c-13.94,19.53-36.69,31.17-60.91,31.17c-40.87,0-74.5-33.18-74.5-73.5
	s33.63-73.5,74.5-73.5c39.6,0,72.63,31.15,74.42,70.18L684,504z"/>
<path class="st1" d="M695.81,507.88l59.19,41.28c4.04-6.42,6.97-13.54,8.68-21.09c1.64-7.24,2.14-14.77,1.47-22.32L695.81,507.88z"
	/>
<path class="st0" d="M943.5,712.5l54.88,38.43c-12.53,17.89-33.04,28.57-54.88,28.57c-36.76,0-67-30.24-67-67s30.24-67,67-67
	c17.23,0,33.02,6.64,44.95,17.49"/>
<path class="st0" d="M987.86,662.38c12.74,11.64,21.09,28.06,21.97,46.47l-67.67,3.23"/>
<path class="st0" d="M988.45,662.99c0.87,0.79,1.72,1.6,2.54,2.44"/>
<path class="st0" d="M955.5,716l61.97-1.99c0.02,0.66,0.03,1.33,0.03,1.99c0,12.88-3.6,25.48-10.33,36.21L955.5,716z"/>
<line class="st0" x1="943.5" y1="712.5" x2="943.5" y2="645.5"/>
<line class="st0" x1="943.5" y1="712.5" x2="876.5" y2="712.5"/>
<line class="st0" x1="943.5" y1="712.5" x2="943.5" y2="779.5"/>
<line class="st0" x1="943.5" y1="712.5" x2="990.5" y2="665.5"/>
<line class="st0" x1="943.5" y1="712.5" x2="896.5" y2="665.5"/>
<line class="st0" x1="943.5" y1="712.5" x2="888.5" y2="751.5"/>
<circle class="st0" cx="913" cy="665" r="3.5"/>
<circle class="st0" cx="933" cy="658" r="3.5"/>
<circle class="st0" cx="931" cy="688" r="3.5"/>
<circle class="st0" cx="956" cy="659" r="3.5"/>
<circle class="st0" cx="969" cy="665" r="3.5"/>
<circle class="st0" cx="953" cy="689" r="3.5"/>
<circle class="st0" cx="967" cy="703" r="3.5"/>
<circle class="st0" cx="990" cy="684" r="3.5"/>
<circle class="st0" cx="993" cy="703" r="3.5"/>
<circle class="st0" cx="897" cy="684" r="3.5"/>
<circle class="st0" cx="892" cy="701" r="3.5"/>
<circle class="st0" cx="918" cy="702" r="3.5"/>
<circle class="st0" cx="892" cy="722" r="3.5"/>
<circle class="st0" cx="919" cy="720" r="3.5"/>
<circle class="st0" cx="908" cy="750" r="3.5"/>
<circle class="st0" cx="929" cy="760" r="3.5"/>
<circle class="st0" cx="934" cy="731" r="3.5"/>
<circle class="st0" cx="957" cy="760" r="3.5"/>
<circle class="st0" cx="976" cy="751" r="3.5"/>
<circle class="st0" cx="956" cy="732" r="3.5"/>
<circle class="st0" cx="1001" cy="738" r="3.5"/>
<circle class="st0" cx="976" cy="721" r="3.5"/>
<circle class="st0" cx="1003" cy="721" r="3.5"/>
<circle class="st0" cx="897" cy="735" r="3.5"/>
<path class="st0" d="M951.5,742.5c0.36,0.67,1,2.09,1,4c0,0.76-0.1,2.31-1,4"/>
<path class="st0" d="M969.5,737.5c-0.46,0.48-1.66,1.85-2,4c-0.4,2.55,0.68,4.48,1,5"/>
<path class="st0" d="M948.5,722.5c0.1,0.42,0.53,1.92,2,3c1.24,0.91,2.53,0.99,3,1"/>
<path class="st0" d="M968.5,759.5c-0.46,0.48-1.66,1.85-2,4c-0.4,2.55,0.68,4.48,1,5"/>
<path class="st0" d="M990.62,720.99c-0.01,0.36-0.04,2.73,1.88,4.51c2.03,1.88,4.55,1.56,4.88,1.51"/>
<path class="st0" d="M984.5,722.5c-0.46,0.48-1.66,1.85-2,4c-0.4,2.55,0.68,4.48,1,5"/>
<path class="st0" d="M937.26,743.08c-0.57,0.23-2.57,1.14-3.76,3.42c-1.01,1.94-0.85,3.76-0.76,4.42"/>
<path class="st0" d="M924.5,733.5c0.32,0.52,1.4,2.45,1,5c-0.34,2.15-1.54,3.52-2,4"/>
<path class="st0" d="M916.5,756.5c-0.46,0.48-1.66,1.85-2,4c-0.4,2.55,0.68,4.48,1,5"/>
<path class="st0" d="M916.41,725.97c-0.73-0.28-2.15-0.7-3.91-0.47c-2.71,0.35-4.4,1.99-4.91,2.53"/>
<path class="st0" d="M903.2,723.2c-0.13-0.75-0.5-2.26-1.7-3.7c-1.74-2.08-4.02-2.58-4.7-2.7"/>
<path class="st0" d="M903.74,689.08c2.16,0.19,4.01,1.52,4.76,3.42c0.85,2.15-0.07,4.09-0.24,4.42"/>
<path class="st0" d="M908.5,706.49c-0.65,0.37-2.09,1.06-4,1.01c-2.69-0.06-4.49-1.54-5-1.99"/>
<path class="st0" d="M916.68,675.64c0.56-0.21,2.5-0.88,4.82-0.14c2.29,0.73,3.48,2.36,3.82,2.86"/>
<path class="st0" d="M938.71,665.37c0.07,0.31,0.61,2.93-1.21,5.13c-1.59,1.92-3.83,2.1-4.21,2.13"/>
<path class="st0" d="M981.5,700.5c-0.46,0.48-1.66,1.85-2,4c-0.4,2.55,0.68,4.48,1,5"/>
<path class="st0" d="M978.5,686.5c1.52,1.2,2.29,3.11,2,5c-0.42,2.72-2.8,3.9-3,4"/>
<path class="st0" d="M951.39,668.77c-0.18,0.58-0.71,2.5,0.11,4.73c0.85,2.3,2.6,3.43,3.11,3.73"/>
<path class="st0" d="M974.69,673.38c-0.7-0.02-2.43,0.02-4.19,1.12c-2.23,1.39-3,3.52-3.19,4.12"/>
<path class="st1" d="M943,712l60.91,42.33c-13.94,19.53-36.69,31.17-60.91,31.17c-40.87,0-74.5-33.18-74.5-73.5
	s33.63-73.5,74.5-73.5c39.6,0,72.63,31.15,74.42,70.18L943,712z"/>
<path class="st1" d="M954.81,715.88l59.19,41.28c4.04-6.42,6.97-13.54,8.68-21.09c1.64-7.24,2.14-14.77,1.47-22.32L954.81,715.88z"
	/>
<path class="st0" d="M1144.5,504.5l54.88,38.43c-12.53,17.89-33.04,28.57-54.88,28.57c-36.76,0-67-30.24-67-67s30.24-67,67-67
	c17.23,0,33.02,6.64,44.95,17.49"/>
<path class="st0" d="M1188.86,454.38c12.74,11.64,21.09,28.06,21.97,46.47l-67.67,3.23"/>
<path class="st0" d="M1189.45,454.99c0.87,0.79,1.72,1.6,2.54,2.44"/>
<path class="st0" d="M1156.5,508l61.97-1.99c0.02,0.66,0.03,1.33,0.03,1.99c0,12.88-3.6,25.48-10.33,36.21L1156.5,508z"/>
<line class="st0" x1="1144.5" y1="504.5" x2="1144.5" y2="437.5"/>
<line class="st0" x1="1144.5" y1="504.5" x2="1077.5" y2="504.5"/>
<line class="st0" x1="1144.5" y1="504.5" x2="1144.5" y2="571.5"/>
<line class="st0" x1="1144.5" y1="504.5" x2="1191.5" y2="457.5"/>
<line class="st0" x1="1144.5" y1="504.5" x2="1097.5" y2="457.5"/>
<line class="st0" x1="1144.5" y1="504.5" x2="1089.5" y2="543.5"/>
<circle class="st0" cx="1114" cy="457" r="3.5"/>
<circle class="st0" cx="1134" cy="450" r="3.5"/>
<circle class="st0" cx="1132" cy="480" r="3.5"/>
<circle class="st0" cx="1157" cy="451" r="3.5"/>
<circle class="st0" cx="1170" cy="457" r="3.5"/>
<circle class="st0" cx="1154" cy="481" r="3.5"/>
<circle class="st0" cx="1168" cy="495" r="3.5"/>
<circle class="st0" cx="1191" cy="476" r="3.5"/>
<circle class="st0" cx="1194" cy="495" r="3.5"/>
<circle class="st0" cx="1098" cy="476" r="3.5"/>
<circle class="st0" cx="1093" cy="493" r="3.5"/>
<circle class="st0" cx="1119" cy="494" r="3.5"/>
<circle class="st0" cx="1093" cy="514" r="3.5"/>
<circle class="st0" cx="1120" cy="512" r="3.5"/>
<circle class="st0" cx="1109" cy="542" r="3.5"/>
<circle class="st0" cx="1130" cy="552" r="3.5"/>
<circle class="st0" cx="1135" cy="523" r="3.5"/>
<circle class="st0" cx="1158" cy="552" r="3.5"/>
<circle class="st0" cx="1177" cy="543" r="3.5"/>
<circle class="st0" cx="1157" cy="524" r="3.5"/>
<circle class="st0" cx="1202" cy="530" r="3.5"/>
<circle class="st0" cx="1177" cy="513" r="3.5"/>
<circle class="st0" cx="1204" cy="513" r="3.5"/>
<circle class="st0" cx="1098" cy="527" r="3.5"/>
<path class="st0" d="M1152.5,534.5c0.36,0.67,1,2.09,1,4c0,0.76-0.1,2.31-1,4"/>
<path class="st0" d="M1170.5,529.5c-0.46,0.48-1.66,1.85-2,4c-0.4,2.55,0.68,4.48,1,5"/>
<path class="st0" d="M1149.5,514.5c0.1,0.42,0.53,1.92,2,3c1.24,0.91,2.53,0.99,3,1"/>
<path class="st0" d="M1169.5,551.5c-0.46,0.48-1.66,1.85-2,4c-0.4,2.55,0.68,4.48,1,5"/>
<path class="st0" d="M1191.62,512.99c-0.01,0.36-0.04,2.73,1.88,4.51c2.03,1.88,4.55,1.56,4.88,1.51"/>
<path class="st0" d="M1185.5,514.5c-0.46,0.48-1.66,1.85-2,4c-0.4,2.55,0.68,4.48,1,5"/>
<path class="st0" d="M1138.26,535.08c-0.57,0.23-2.57,1.14-3.76,3.42c-1.01,1.94-0.85,3.76-0.76,4.42"/>
<path class="st0" d="M1125.5,525.5c0.32,0.52,1.4,2.45,1,5c-0.34,2.15-1.54,3.52-2,4"/>
<path class="st0" d="M1117.5,548.5c-0.46,0.48-1.66,1.85-2,4c-0.4,2.55,0.68,4.48,1,5"/>
<path class="st0" d="M1117.41,517.97c-0.73-0.28-2.15-0.7-3.91-0.47c-2.71,0.35-4.4,1.99-4.91,2.53"/>
<path class="st0" d="M1104.2,515.2c-0.13-0.75-0.5-2.26-1.7-3.7c-1.74-2.08-4.02-2.58-4.7-2.7"/>
<path class="st0" d="M1104.74,481.08c2.16,0.19,4.01,1.52,4.76,3.42c0.85,2.15-0.07,4.09-0.24,4.42"/>
<path class="st0" d="M1109.5,498.49c-0.65,0.37-2.09,1.06-4,1.01c-2.69-0.06-4.49-1.54-5-1.99"/>
<path class="st0" d="M1117.68,467.64c0.56-0.21,2.5-0.88,4.82-0.14c2.29,0.73,3.48,2.36,3.82,2.86"/>
<path class="st0" d="M1139.71,457.37c0.07,0.31,0.61,2.93-1.21,5.13c-1.59,1.92-3.83,2.1-4.21,2.13"/>
<path class="st0" d="M1182.5,492.5c-0.46,0.48-1.66,1.85-2,4c-0.4,2.55,0.68,4.48,1,5"/>
<path class="st0" d="M1179.5,478.5c1.52,1.2,2.29,3.11,2,5c-0.42,2.72-2.8,3.9-3,4"/>
<path class="st0" d="M1152.39,460.77c-0.18,0.58-0.71,2.5,0.11,4.73c0.85,2.3,2.6,3.43,3.11,3.73"/>
<path class="st0" d="M1175.69,465.38c-0.7-0.02-2.43,0.02-4.19,1.12c-2.23,1.39-3,3.52-3.19,4.12"/>
<path class="st1" d="M1144,504l60.91,42.33c-13.94,19.53-36.69,31.17-60.91,31.17c-40.87,0-74.5-33.18-74.5-73.5
	s33.63-73.5,74.5-73.5c39.6,0,72.63,31.15,74.42,70.18L1144,504z"/>
<path class="st1" d="M1155.81,507.88l59.19,41.28c4.04-6.42,6.97-13.54,8.68-21.09c1.64-7.24,2.14-14.77,1.47-22.32L1155.81,507.88z
	"/>
<path class="st0" d="M262.5,915.5l54.88,38.43c-12.53,17.89-33.04,28.57-54.88,28.57c-36.76,0-67-30.24-67-67s30.24-67,67-67
	c17.23,0,33.02,6.64,44.95,17.49"/>
<path class="st0" d="M306.86,865.38c12.74,11.64,21.09,28.06,21.97,46.47l-67.67,3.23"/>
<path class="st0" d="M307.45,865.99c0.87,0.79,1.72,1.6,2.54,2.44"/>
<path class="st0" d="M274.5,919l61.97-1.99c0.02,0.66,0.03,1.33,0.03,1.99c0,12.88-3.6,25.48-10.33,36.21L274.5,919z"/>
<line class="st0" x1="262.5" y1="915.5" x2="262.5" y2="848.5"/>
<line class="st0" x1="262.5" y1="915.5" x2="195.5" y2="915.5"/>
<line class="st0" x1="262.5" y1="915.5" x2="262.5" y2="982.5"/>
<line class="st0" x1="262.5" y1="915.5" x2="309.5" y2="868.5"/>
<line class="st0" x1="262.5" y1="915.5" x2="215.5" y2="868.5"/>
<line class="st0" x1="262.5" y1="915.5" x2="207.5" y2="954.5"/>
<circle class="st0" cx="232" cy="868" r="3.5"/>
<circle class="st0" cx="252" cy="861" r="3.5"/>
<circle class="st0" cx="250" cy="891" r="3.5"/>
<circle class="st0" cx="275" cy="862" r="3.5"/>
<circle class="st0" cx="288" cy="868" r="3.5"/>
<circle class="st0" cx="272" cy="892" r="3.5"/>
<circle class="st0" cx="286" cy="906" r="3.5"/>
<circle class="st0" cx="309" cy="887" r="3.5"/>
<circle class="st0" cx="312" cy="906" r="3.5"/>
<circle class="st0" cx="216" cy="887" r="3.5"/>
<circle class="st0" cx="211" cy="904" r="3.5"/>
<circle class="st0" cx="237" cy="905" r="3.5"/>
<circle class="st0" cx="211" cy="925" r="3.5"/>
<circle class="st0" cx="238" cy="923" r="3.5"/>
<circle class="st0" cx="227" cy="953" r="3.5"/>
<circle class="st0" cx="248" cy="963" r="3.5"/>
<circle class="st0" cx="253" cy="934" r="3.5"/>
<circle class="st0" cx="276" cy="963" r="3.5"/>
<circle class="st0" cx="295" cy="954" r="3.5"/>
<circle class="st0" cx="275" cy="935" r="3.5"/>
<circle class="st0" cx="320" cy="941" r="3.5"/>
<circle class="st0" cx="295" cy="924" r="3.5"/>
<circle class="st0" cx="322" cy="924" r="3.5"/>
<circle class="st0" cx="216" cy="938" r="3.5"/>
<path class="st0" d="M270.5,945.5c0.36,0.67,1,2.09,1,4c0,0.76-0.1,2.31-1,4"/>
<path class="st0" d="M288.5,940.5c-0.46,0.48-1.66,1.85-2,4c-0.4,2.55,0.68,4.48,1,5"/>
<path class="st0" d="M267.5,925.5c0.1,0.42,0.53,1.92,2,3c1.24,0.91,2.53,0.99,3,1"/>
<path class="st0" d="M287.5,962.5c-0.46,0.48-1.66,1.85-2,4c-0.4,2.55,0.68,4.48,1,5"/>
<path class="st0" d="M309.62,923.99c-0.01,0.36-0.04,2.73,1.88,4.51c2.03,1.88,4.55,1.56,4.88,1.51"/>
<path class="st0" d="M303.5,925.5c-0.46,0.48-1.66,1.85-2,4c-0.4,2.55,0.68,4.48,1,5"/>
<path class="st0" d="M256.26,946.08c-0.57,0.23-2.57,1.14-3.76,3.42c-1.01,1.94-0.85,3.76-0.76,4.42"/>
<path class="st0" d="M243.5,936.5c0.32,0.52,1.4,2.45,1,5c-0.34,2.15-1.54,3.52-2,4"/>
<path class="st0" d="M235.5,959.5c-0.46,0.48-1.66,1.85-2,4c-0.4,2.55,0.68,4.48,1,5"/>
<path class="st0" d="M235.41,928.97c-0.73-0.28-2.15-0.7-3.91-0.47c-2.71,0.35-4.4,1.99-4.91,2.53"/>
<path class="st0" d="M222.2,926.2c-0.13-0.75-0.5-2.26-1.7-3.7c-1.74-2.08-4.02-2.58-4.7-2.7"/>
<path class="st0" d="M222.74,892.08c2.16,0.19,4.01,1.52,4.76,3.42c0.85,2.15-0.07,4.09-0.24,4.42"/>
<path class="st0" d="M227.5,909.49c-0.65,0.37-2.09,1.06-4,1.01c-2.69-0.06-4.49-1.54-5-1.99"/>
<path class="st0" d="M235.68,878.64c0.56-0.21,2.5-0.88,4.82-0.14c2.29,0.73,3.48,2.36,3.82,2.86"/>
<path class="st0" d="M257.71,868.37c0.07,0.31,0.61,2.93-1.21,5.13c-1.59,1.92-3.83,2.1-4.21,2.13"/>
<path class="st0" d="M300.5,903.5c-0.46,0.48-1.66,1.85-2,4c-0.4,2.55,0.68,4.48,1,5"/>
<path class="st0" d="M297.5,889.5c1.52,1.2,2.29,3.11,2,5c-0.42,2.72-2.8,3.9-3,4"/>
<path class="st0" d="M270.39,871.77c-0.18,0.58-0.71,2.5,0.11,4.73c0.85,2.3,2.6,3.43,3.11,3.73"/>
<path class="st0" d="M293.69,876.38c-0.7-0.02-2.43,0.02-4.19,1.12c-2.23,1.39-3,3.52-3.19,4.12"/>
<path class="st1" d="M262,915l60.91,42.33c-13.94,19.53-36.69,31.17-60.91,31.17c-40.87,0-74.5-33.18-74.5-73.5
	s33.63-73.5,74.5-73.5c39.6,0,72.63,31.15,74.42,70.18L262,915z"/>
<path class="st1" d="M273.81,918.88l59.19,41.28c4.04-6.42,6.97-13.54,8.68-21.09c1.64-7.24,2.14-14.77,1.47-22.32L273.81,918.88z"
	/>
<path class="st0" d="M685.5,916.5l54.88,38.43c-12.53,17.89-33.04,28.57-54.88,28.57c-36.76,0-67-30.24-67-67s30.24-67,67-67
	c17.23,0,33.02,6.64,44.95,17.49"/>
<path class="st0" d="M729.86,866.38c12.74,11.64,21.09,28.06,21.97,46.47l-67.67,3.23"/>
<path class="st0" d="M730.45,866.99c0.87,0.79,1.72,1.6,2.54,2.44"/>
<path class="st0" d="M697.5,920l61.97-1.99c0.02,0.66,0.03,1.33,0.03,1.99c0,12.88-3.6,25.48-10.33,36.21L697.5,920z"/>
<line class="st0" x1="685.5" y1="916.5" x2="685.5" y2="849.5"/>
<line class="st0" x1="685.5" y1="916.5" x2="618.5" y2="916.5"/>
<line class="st0" x1="685.5" y1="916.5" x2="685.5" y2="983.5"/>
<line class="st0" x1="685.5" y1="916.5" x2="732.5" y2="869.5"/>
<line class="st0" x1="685.5" y1="916.5" x2="638.5" y2="869.5"/>
<line class="st0" x1="685.5" y1="916.5" x2="630.5" y2="955.5"/>
<circle class="st0" cx="655" cy="869" r="3.5"/>
<circle class="st0" cx="675" cy="862" r="3.5"/>
<circle class="st0" cx="673" cy="892" r="3.5"/>
<circle class="st0" cx="698" cy="863" r="3.5"/>
<circle class="st0" cx="711" cy="869" r="3.5"/>
<circle class="st0" cx="695" cy="893" r="3.5"/>
<circle class="st0" cx="709" cy="907" r="3.5"/>
<circle class="st0" cx="732" cy="888" r="3.5"/>
<circle class="st0" cx="735" cy="907" r="3.5"/>
<circle class="st0" cx="639" cy="888" r="3.5"/>
<circle class="st0" cx="634" cy="905" r="3.5"/>
<circle class="st0" cx="660" cy="906" r="3.5"/>
<circle class="st0" cx="634" cy="926" r="3.5"/>
<circle class="st0" cx="661" cy="924" r="3.5"/>
<circle class="st0" cx="650" cy="954" r="3.5"/>
<circle class="st0" cx="671" cy="964" r="3.5"/>
<circle class="st0" cx="676" cy="935" r="3.5"/>
<circle class="st0" cx="699" cy="964" r="3.5"/>
<circle class="st0" cx="718" cy="955" r="3.5"/>
<circle class="st0" cx="698" cy="936" r="3.5"/>
<circle class="st0" cx="743" cy="942" r="3.5"/>
<circle class="st0" cx="718" cy="925" r="3.5"/>
<circle class="st0" cx="745" cy="925" r="3.5"/>
<circle class="st0" cx="639" cy="939" r="3.5"/>
<path class="st0" d="M693.5,946.5c0.36,0.67,1,2.09,1,4c0,0.76-0.1,2.31-1,4"/>
<path class="st0" d="M711.5,941.5c-0.46,0.48-1.66,1.85-2,4c-0.4,2.55,0.68,4.48,1,5"/>
<path class="st0" d="M690.5,926.5c0.1,0.42,0.53,1.92,2,3c1.24,0.91,2.53,0.99,3,1"/>
<path class="st0" d="M710.5,963.5c-0.46,0.48-1.66,1.85-2,4c-0.4,2.55,0.68,4.48,1,5"/>
<path class="st0" d="M732.62,924.99c-0.01,0.36-0.04,2.73,1.88,4.51c2.03,1.88,4.55,1.56,4.88,1.51"/>
<path class="st0" d="M726.5,926.5c-0.46,0.48-1.66,1.85-2,4c-0.4,2.55,0.68,4.48,1,5"/>
<path class="st0" d="M679.26,947.08c-0.57,0.23-2.57,1.14-3.76,3.42c-1.01,1.94-0.85,3.76-0.76,4.42"/>
<path class="st0" d="M666.5,937.5c0.32,0.52,1.4,2.45,1,5c-0.34,2.15-1.54,3.52-2,4"/>
<path class="st0" d="M658.5,960.5c-0.46,0.48-1.66,1.85-2,4c-0.4,2.55,0.68,4.48,1,5"/>
<path class="st0" d="M658.41,929.97c-0.73-0.28-2.15-0.7-3.91-0.47c-2.71,0.35-4.4,1.99-4.91,2.53"/>
<path class="st0" d="M645.2,927.2c-0.13-0.75-0.5-2.26-1.7-3.7c-1.74-2.08-4.02-2.58-4.7-2.7"/>
<path class="st0" d="M645.74,893.08c2.16,0.19,4.01,1.52,4.76,3.42c0.85,2.15-0.07,4.09-0.24,4.42"/>
<path class="st0" d="M650.5,910.49c-0.65,0.37-2.09,1.06-4,1.01c-2.69-0.06-4.49-1.54-5-1.99"/>
<path class="st0" d="M658.68,879.64c0.56-0.21,2.5-0.88,4.82-0.14c2.29,0.73,3.48,2.36,3.82,2.86"/>
<path class="st0" d="M680.71,869.37c0.07,0.31,0.61,2.93-1.21,5.13c-1.59,1.92-3.83,2.1-4.21,2.13"/>
<path class="st0" d="M723.5,904.5c-0.46,0.48-1.66,1.85-2,4c-0.4,2.55,0.68,4.48,1,5"/>
<path class="st0" d="M720.5,890.5c1.52,1.2,2.29,3.11,2,5c-0.42,2.72-2.8,3.9-3,4"/>
<path class="st0" d="M693.39,872.77c-0.18,0.58-0.71,2.5,0.11,4.73c0.85,2.3,2.6,3.43,3.11,3.73"/>
<path class="st0" d="M716.69,877.38c-0.7-0.02-2.43,0.02-4.19,1.12c-2.23,1.39-3,3.52-3.19,4.12"/>
<path class="st1" d="M685,916l60.91,42.33c-13.94,19.53-36.69,31.17-60.91,31.17c-40.87,0-74.5-33.18-74.5-73.5
	s33.63-73.5,74.5-73.5c39.6,0,72.63,31.15,74.42,70.18L685,916z"/>
<path class="st1" d="M696.81,919.88l59.19,41.28c4.04-6.42,6.97-13.54,8.68-21.09c1.64-7.24,2.14-14.77,1.47-22.32L696.81,919.88z"
	/>
<path class="st0" d="M1145.5,916.5l54.88,38.43c-12.53,17.89-33.04,28.57-54.88,28.57c-36.76,0-67-30.24-67-67s30.24-67,67-67
	c17.23,0,33.02,6.64,44.95,17.49"/>
<path class="st0" d="M1189.86,866.38c12.74,11.64,21.09,28.06,21.97,46.47l-67.67,3.23"/>
<path class="st0" d="M1190.45,866.99c0.87,0.79,1.72,1.6,2.54,2.44"/>
<path class="st0" d="M1157.5,920l61.97-1.99c0.02,0.66,0.03,1.33,0.03,1.99c0,12.88-3.6,25.48-10.33,36.21L1157.5,920z"/>
<line class="st0" x1="1145.5" y1="916.5" x2="1145.5" y2="849.5"/>
<line class="st0" x1="1145.5" y1="916.5" x2="1078.5" y2="916.5"/>
<line class="st0" x1="1145.5" y1="916.5" x2="1145.5" y2="983.5"/>
<line class="st0" x1="1145.5" y1="916.5" x2="1192.5" y2="869.5"/>
<line class="st0" x1="1145.5" y1="916.5" x2="1098.5" y2="869.5"/>
<line class="st0" x1="1145.5" y1="916.5" x2="1090.5" y2="955.5"/>
<circle class="st0" cx="1115" cy="869" r="3.5"/>
<circle class="st0" cx="1135" cy="862" r="3.5"/>
<circle class="st0" cx="1133" cy="892" r="3.5"/>
<circle class="st0" cx="1158" cy="863" r="3.5"/>
<circle class="st0" cx="1171" cy="869" r="3.5"/>
<circle class="st0" cx="1155" cy="893" r="3.5"/>
<circle class="st0" cx="1169" cy="907" r="3.5"/>
<circle class="st0" cx="1192" cy="888" r="3.5"/>
<circle class="st0" cx="1195" cy="907" r="3.5"/>
<circle class="st0" cx="1099" cy="888" r="3.5"/>
<circle class="st0" cx="1094" cy="905" r="3.5"/>
<circle class="st0" cx="1120" cy="906" r="3.5"/>
<circle class="st0" cx="1094" cy="926" r="3.5"/>
<circle class="st0" cx="1121" cy="924" r="3.5"/>
<circle class="st0" cx="1110" cy="954" r="3.5"/>
<circle class="st0" cx="1131" cy="964" r="3.5"/>
<circle class="st0" cx="1136" cy="935" r="3.5"/>
<circle class="st0" cx="1159" cy="964" r="3.5"/>
<circle class="st0" cx="1178" cy="955" r="3.5"/>
<circle class="st0" cx="1158" cy="936" r="3.5"/>
<circle class="st0" cx="1203" cy="942" r="3.5"/>
<circle class="st0" cx="1178" cy="925" r="3.5"/>
<circle class="st0" cx="1205" cy="925" r="3.5"/>
<circle class="st0" cx="1099" cy="939" r="3.5"/>
<path class="st0" d="M1153.5,946.5c0.36,0.67,1,2.09,1,4c0,0.76-0.1,2.31-1,4"/>
<path class="st0" d="M1171.5,941.5c-0.46,0.48-1.66,1.85-2,4c-0.4,2.55,0.68,4.48,1,5"/>
<path class="st0" d="M1150.5,926.5c0.1,0.42,0.53,1.92,2,3c1.24,0.91,2.53,0.99,3,1"/>
<path class="st0" d="M1170.5,963.5c-0.46,0.48-1.66,1.85-2,4c-0.4,2.55,0.68,4.48,1,5"/>
<path class="st0" d="M1192.62,924.99c-0.01,0.36-0.04,2.73,1.88,4.51c2.03,1.88,4.55,1.56,4.88,1.51"/>
<path class="st0" d="M1186.5,926.5c-0.46,0.48-1.66,1.85-2,4c-0.4,2.55,0.68,4.48,1,5"/>
<path class="st0" d="M1139.26,947.08c-0.57,0.23-2.57,1.14-3.76,3.42c-1.01,1.94-0.85,3.76-0.76,4.42"/>
<path class="st0" d="M1126.5,937.5c0.32,0.52,1.4,2.45,1,5c-0.34,2.15-1.54,3.52-2,4"/>
<path class="st0" d="M1118.5,960.5c-0.46,0.48-1.66,1.85-2,4c-0.4,2.55,0.68,4.48,1,5"/>
<path class="st0" d="M1118.41,929.97c-0.73-0.28-2.15-0.7-3.91-0.47c-2.71,0.35-4.4,1.99-4.91,2.53"/>
<path class="st0" d="M1105.2,927.2c-0.13-0.75-0.5-2.26-1.7-3.7c-1.74-2.08-4.02-2.58-4.7-2.7"/>
<path class="st0" d="M1105.74,893.08c2.16,0.19,4.01,1.52,4.76,3.42c0.85,2.15-0.07,4.09-0.24,4.42"/>
<path class="st0" d="M1110.5,910.49c-0.65,0.37-2.09,1.06-4,1.01c-2.69-0.06-4.49-1.54-5-1.99"/>
<path class="st0" d="M1118.68,879.64c0.56-0.21,2.5-0.88,4.82-0.14c2.29,0.73,3.48,2.36,3.82,2.86"/>
<path class="st0" d="M1140.71,869.37c0.07,0.31,0.61,2.93-1.21,5.13c-1.59,1.92-3.83,2.1-4.21,2.13"/>
<path class="st0" d="M1183.5,904.5c-0.46,0.48-1.66,1.85-2,4c-0.4,2.55,0.68,4.48,1,5"/>
<path class="st0" d="M1180.5,890.5c1.52,1.2,2.29,3.11,2,5c-0.42,2.72-2.8,3.9-3,4"/>
<path class="st0" d="M1153.39,872.77c-0.18,0.58-0.71,2.5,0.11,4.73c0.85,2.3,2.6,3.43,3.11,3.73"/>
<path class="st0" d="M1176.69,877.38c-0.7-0.02-2.43,0.02-4.19,1.12c-2.23,1.39-3,3.52-3.19,4.12"/>
<path class="st1" d="M1145,916l60.91,42.33c-13.94,19.53-36.69,31.17-60.91,31.17c-40.87,0-74.5-33.18-74.5-73.5
	s33.63-73.5,74.5-73.5c39.6,0,72.63,31.15,74.42,70.18L1145,916z"/>
<path class="st1" d="M1156.81,919.88l59.19,41.28c4.04-6.42,6.97-13.54,8.68-21.09c1.64-7.24,2.14-14.77,1.47-22.32L1156.81,919.88z
	"/>
</svg>
